<svg width="40" height="25" viewBox="0 0 40 25" xmlns="http://www.w3.org/2000/svg">
  <defs>
    <linearGradient id="silverShellTopGrad" x1="0%" y1="0%" x2="100%" y2="100%">
      <stop offset="0%" style="stop-color:#f8f8ff;stop-opacity:1" />
      <stop offset="50%" style="stop-color:#e6e6fa;stop-opacity:1" />
      <stop offset="100%" style="stop-color:#c0c0c0;stop-opacity:1" />
    </linearGradient>
  </defs>

  <!-- 完全な卵の上半分（Y=24で切断、ジグザグの割れ目） -->
  <path d="M 20 0 L 24 2 L 28 6 L 30 10 L 32 16 L 32 22 L 30 24 L 28 22 L 26 24 L 24 22 L 22 24 L 20 22 L 18 24 L 16 22 L 14 24 L 12 22 L 10 24 L 8 22 L 8 16 L 10 10 L 12 6 L 16 2 Z"
        fill="url(#silverShellTopGrad)" stroke="#808080" stroke-width="2"/>

  <!-- 完全な卵と同じハイライト（上半分のみ） -->
  <ellipse cx="18" cy="16" rx="4" ry="2" fill="#ffffff" opacity="0.7"/>
  <ellipse cx="19" cy="14" rx="2" ry="1" fill="#ffffff" opacity="0.9"/>

  <!-- 完全な卵と同じ光沢（上半分のみ） -->
  <ellipse cx="20" cy="22" rx="1" ry="2" fill="#ffffff" opacity="0.5"/>

  <!-- 内側の白い部分（割れ目） -->
  <path d="M 10 22 L 12 20 L 14 22 L 16 20 L 18 22 L 20 20 L 22 22 L 24 20 L 26 22 L 28 20 L 30 22 L 30 24 L 10 24 Z"
        fill="#ffffff" opacity="0.9"/>
</svg>
