<svg width="60" height="40" viewBox="0 0 60 40" xmlns="http://www.w3.org/2000/svg">
  <!-- 後輪 -->
  <circle cx="12" cy="30" r="10" fill="#2a2a2a" stroke="#000" stroke-width="2"/>
  <circle cx="12" cy="30" r="8" fill="none" stroke="#666" stroke-width="1"/>
  <circle cx="12" cy="30" r="6" fill="none" stroke="#888" stroke-width="1"/>
  <circle cx="12" cy="30" r="4" fill="none" stroke="#aaa" stroke-width="1"/>
  <circle cx="12" cy="30" r="2" fill="#444"/>

  <!-- 前輪 -->
  <circle cx="48" cy="30" r="10" fill="#2a2a2a" stroke="#000" stroke-width="2"/>
  <circle cx="48" cy="30" r="8" fill="none" stroke="#666" stroke-width="1"/>
  <circle cx="48" cy="30" r="6" fill="none" stroke="#888" stroke-width="1"/>
  <circle cx="48" cy="30" r="4" fill="none" stroke="#aaa" stroke-width="1"/>
  <circle cx="48" cy="30" r="2" fill="#444"/>

  <!-- メインフレーム -->
  <path d="M12 30 L30 12 L48 30" fill="none" stroke="#e74c3c" stroke-width="4" stroke-linecap="round"/>
  <path d="M22 21 L38 21" fill="none" stroke="#e74c3c" stroke-width="3" stroke-linecap="round"/>
  <path d="M30 12 L30 6" fill="none" stroke="#e74c3c" stroke-width="3" stroke-linecap="round"/>
  <path d="M22 21 L12 30" fill="none" stroke="#e74c3c" stroke-width="3" stroke-linecap="round"/>

  <!-- ハンドル -->
  <path d="M26 6 L34 6" fill="none" stroke="#333" stroke-width="3" stroke-linecap="round"/>
  <circle cx="26" cy="6" r="2" fill="#666"/>
  <circle cx="34" cy="6" r="2" fill="#666"/>

  <!-- サドル -->
  <ellipse cx="22" cy="21" rx="5" ry="2" fill="#8b4513"/>
  <ellipse cx="22" cy="20" rx="5" ry="1.5" fill="#a0522d"/>

  <!-- ペダル -->
  <circle cx="30" cy="26" r="3" fill="#666" stroke="#333" stroke-width="1"/>
  <rect x="28" y="24" width="4" height="4" fill="#888" stroke="#333" stroke-width="1" rx="1"/>

  <!-- チェーン -->
  <path d="M27 26 Q20 28 15 30" fill="none" stroke="#888" stroke-width="2" stroke-dasharray="1,1"/>
  <path d="M33 26 Q40 28 45 30" fill="none" stroke="#888" stroke-width="2" stroke-dasharray="1,1"/>

  <!-- ライダー -->
  <!-- 頭 -->
  <circle cx="22" cy="15" r="4" fill="#ffdbac"/>
  <!-- ヘルメット -->
  <path d="M18 15 Q22 11 26 15 Q24 13 22 13 Q20 13 18 15" fill="#ff6b6b" stroke="#e55555" stroke-width="1"/>
  <!-- 体 -->
  <ellipse cx="22" cy="23" rx="3" ry="6" fill="#4a90e2"/>
  <!-- 腕 -->
  <path d="M25 20 Q30 18 32 8" fill="none" stroke="#ffdbac" stroke-width="3" stroke-linecap="round"/>
  <path d="M19 20 Q24 18 28 8" fill="none" stroke="#ffdbac" stroke-width="3" stroke-linecap="round"/>
  <!-- 脚 -->
  <path d="M24 28 Q28 24 30 26" fill="none" stroke="#2c3e50" stroke-width="3" stroke-linecap="round"/>
  <path d="M20 28 Q24 32 28 30" fill="none" stroke="#2c3e50" stroke-width="3" stroke-linecap="round"/>

  <!-- 影 -->
  <ellipse cx="30" cy="38" rx="25" ry="3" fill="#000" opacity="0.2"/>
</svg>
